<svg xmlns="http://www.w3.org/2000/svg">
    <symbol id="organization" >
        <path d="M18.2786 7.18526H15.1998V5.99738C15.1998 5.48829 14.7876 5.07617 14.2786 5.07617H9.64825C9.13916 5.07617 8.72704 5.48829 8.72704 5.99738V7.18526H5.72098C4.89673 7.18526 4.24219 7.86405 4.24219 8.66405V9.51254L11.127 12.7125C11.1755 12.2519 11.5392 11.8883 11.9998 11.8883C12.4604 11.8883 12.8482 12.2519 12.8725 12.7125L19.7573 9.51254V8.66405C19.7573 7.86405 19.1028 7.18526 18.2786 7.18526ZM14.7149 7.18526H9.21188V5.99738C9.21188 5.75496 9.40582 5.56102 9.64825 5.56102H14.2786C14.521 5.56102 14.7149 5.75496 14.7149 5.99738V7.18526Z" fill="currentColor"/>
        <path d="M12.4116 13.8276V12.7852C12.4116 12.567 12.2419 12.373 11.9995 12.373C11.7571 12.373 11.5874 12.5427 11.5874 12.7852V13.8276C11.5874 14.0458 11.7571 14.2397 11.9995 14.2397C12.2419 14.2397 12.4116 14.0458 12.4116 13.8276Z" fill="currentColor"/>
        <path d="M12.8967 13.8267C12.8967 14.3116 12.5089 14.7237 11.9998 14.7237C11.4907 14.7237 11.1028 14.3358 11.1028 13.8267V13.2449L4.24219 10.0449V16.4449C4.24219 17.2692 4.89673 17.9237 5.72098 17.9237H18.2786C19.1028 17.9237 19.7573 17.2692 19.7573 16.4449V10.0449L12.8967 13.2449V13.8267Z" fill="currentColor"/>
    </symbol>

    <symbol id="trash">
        <path d="M15.0833 3H12.4583L11.7083 2.25H7.95825L7.20825 3H4.58325V4.5H15.0833M5.33325 14.25C5.33325 14.6478 5.49129 15.0294 5.77259 15.3107C6.0539 15.592 6.43543 15.75 6.83325 15.75H12.8333C13.2311 15.75 13.6126 15.592 13.8939 15.3107C14.1752 15.0294 14.3333 14.6478 14.3333 14.25V5.25H5.33325V14.25Z" fill="currentColor"/>
    </symbol>

    <symbol id="edit" >
        <path d="M6.2655 13.4969H3.08325V10.3154L11.6595 1.73912C11.8001 1.59852 11.9909 1.51953 12.1898 1.51953C12.3886 1.51953 12.5794 1.59852 12.72 1.73912L14.8418 3.86012C14.9824 4.00077 15.0613 4.1915 15.0613 4.39037C15.0613 4.58924 14.9824 4.77998 14.8418 4.92062L6.2655 13.4969ZM3.08325 14.9969H16.5833V16.4969H3.08325V14.9969Z" fill="currentColor"/>
    </symbol>

    <symbol id="avatar" >
        <path d="M16 17.125C17.3427 17.125 18.6303 16.5916 19.5797 15.6422C20.5291 14.6928 21.0625 13.4052 21.0625 12.0625C21.0625 10.7198 20.5291 9.43217 19.5797 8.48277C18.6303 7.53337 17.3427 7 16 7C14.6573 7 13.3697 7.53337 12.4203 8.48277C11.4709 9.43217 10.9375 10.7198 10.9375 12.0625C10.9375 13.4052 11.4709 14.6928 12.4203 15.6422C13.3697 16.5916 14.6573 17.125 16 17.125ZM12.6707 18.25C9.53828 18.25 7 20.7883 7 23.9207C7 24.5184 7.48516 25 8.0793 25H23.9207C24.5184 25 25 24.5148 25 23.9207C25 20.7883 22.4617 18.25 19.3293 18.25H12.6707Z" fill="currentColor"/>
    </symbol>

    <symbol id="search">
        <path fill-rule="evenodd" clip-rule="evenodd" d="M8 16C12.4183 16 16 12.4183 16 8C16 3.58172 12.4183 0 8 0C3.58172 0 0 3.58172 0 8C0 12.4183 3.58172 16 8 16ZM10.4078 9.28067L12.5236 11.3965C12.6194 11.5036 12.6705 11.6433 12.6664 11.7869C12.6624 11.9305 12.6036 12.0671 12.502 12.1687C12.4004 12.2703 12.2638 12.3291 12.1202 12.3331C11.9766 12.3371 11.8369 12.286 11.7298 12.1903L9.614 10.0745C8.93587 10.5839 8.11044 10.8588 7.26229 10.8579C5.09588 10.8579 3.33333 9.09537 3.33333 6.92896C3.33333 4.76255 5.09588 3 7.26229 3C9.42871 3 11.1913 4.76255 11.1913 6.92896C11.1922 7.7771 10.9172 8.60253 10.4078 9.28067ZM4.92886 5.36981C4.62049 5.83132 4.45589 6.37391 4.45589 6.92896C4.45679 7.67299 4.75275 8.38629 5.27885 8.9124C5.80496 9.43851 6.51826 9.73447 7.26229 9.73536C7.81735 9.73536 8.35994 9.57077 8.82145 9.2624C9.28296 8.95402 9.64266 8.51573 9.85507 8.00292C10.0675 7.49012 10.1231 6.92585 10.0148 6.38146C9.90648 5.83707 9.6392 5.33702 9.24672 4.94454C8.85424 4.55205 8.35418 4.28477 7.80979 4.17648C7.26541 4.0682 6.70113 4.12377 6.18833 4.33618C5.67553 4.54859 5.23723 4.9083 4.92886 5.36981Z" fill="currentColor"/>
    </symbol>

    <symbol id="arrowDown">
        <path fill-rule="evenodd" clip-rule="evenodd" d="M13.7362 10.9348C13.9051 11.0931 14 11.3076 14 11.5314C14 11.7551 13.9051 11.9697 13.7362 12.1279L10.1317 15.503C9.96267 15.6611 9.73351 15.75 9.49456 15.75C9.25561 15.75 9.02645 15.6611 8.85746 15.503L5.25296 12.1279C5.08881 11.9688 4.99798 11.7556 5.00003 11.5344C5.00209 11.3132 5.09686 11.1016 5.26393 10.9451C5.43101 10.7887 5.65702 10.6999 5.8933 10.698C6.12957 10.6961 6.3572 10.7811 6.52715 10.9348L8.59343 12.8696L8.59343 3.09376C8.59343 2.86998 8.68837 2.65537 8.85737 2.49713C9.02636 2.3389 9.25557 2.25 9.49456 2.25C9.73355 2.25 9.96276 2.3389 10.1318 2.49713C10.3007 2.65537 10.3957 2.86998 10.3957 3.09376L10.3957 12.8696L12.462 10.9348C12.631 10.7767 12.8601 10.6878 13.0991 10.6878C13.338 10.6878 13.5672 10.7767 13.7362 10.9348Z" fill="currentColor"/>
    </symbol>

    <symbol id="close" >
        <path d="M4 3.33333L20 19.3333" stroke="currentColor" stroke-width="2" stroke-linecap="round"/>
        <path d="M4 19.3333L20 3.33333" stroke="currentColor" stroke-width="2" stroke-linecap="round"/>
    </symbol>
</svg>